<svg xmlns="http://www.w3.org/2000/svg" width="191" height="59" viewBox="0 0 191 59" fill="none"><path d="M10.7302 27.5358L5.0666 33.1994C2.99189 30.8853 1.49001 28.116 0.682027 25.1149C-0.125957 22.1138 -0.217422 18.9648 0.415009 15.9219L8.15594 17.9955C7.87214 19.6772 7.9552 21.4004 8.39943 23.0471C8.84366 24.6938 9.63856 26.225 10.7297 27.5358H10.7302Z" fill="#00CFFF"></path><path d="M39.6991 19.9688C39.7012 23.8014 38.5931 27.5526 36.5087 30.7689C34.4243 33.9852 31.4529 36.5288 27.9537 38.0923C24.4544 39.6558 20.5772 40.1722 16.7907 39.579C13.0043 38.9859 9.4707 37.3086 6.61719 34.75L12.2794 29.0878C14.0117 30.528 16.1183 31.4449 18.3528 31.7312C20.5873 32.0176 22.8571 31.6617 24.8966 30.7049C26.9361 29.7482 28.6609 28.2304 29.8691 26.329C31.0774 24.4277 31.719 22.2216 31.719 19.9688C31.719 17.7161 31.0774 15.5099 29.8691 13.6086C28.6609 11.7073 26.9361 10.1894 24.8966 9.23272C22.8571 8.27601 20.5873 7.91997 18.3528 8.20636C16.1183 8.49275 14.0117 9.4097 12.2794 10.8498L6.61719 5.18771C9.4707 2.62908 13.0043 0.951793 16.7907 0.35865C20.5772 -0.234494 24.4544 0.281903 27.9537 1.84538C31.4529 3.40885 34.4243 5.95248 36.5087 9.16875C38.5931 12.385 39.7012 16.1362 39.6991 19.9688Z" fill="#177BE2"></path><path d="M10.7308 12.3989C9.86677 13.4352 9.18667 14.6118 8.71995 15.8777L0.979004 13.8041C1.83762 11.1904 3.22976 8.78346 5.0672 6.73584L10.7308 12.3989Z" fill="#00CFFF"></path><path d="M30.8172 42.7817C29.9228 44.9547 28.4029 46.813 26.4504 48.1207C24.498 49.4283 22.2011 50.1265 19.8512 50.1265C17.5013 50.1265 15.2044 49.4283 13.252 48.1207C11.2996 46.813 9.77972 44.9547 8.88526 42.7817H0.519043C1.53783 47.1447 4.00252 51.0348 7.51238 53.8195C11.0222 56.6042 15.3709 58.1198 19.8512 58.1198C24.3316 58.1198 28.6802 56.6042 32.1901 53.8195C35.7 51.0348 38.1646 47.1447 39.1834 42.7817H30.8172Z" fill="#177BE2"></path><path d="M52.6656 8.86671C52.67 9.13341 52.6207 9.39832 52.5207 9.64561C52.4207 9.89289 52.272 10.1175 52.0834 10.3062C51.9009 10.4996 51.68 10.6527 51.4349 10.7558C51.1897 10.8589 50.9258 10.9096 50.6599 10.9047C50.1198 10.9034 49.6022 10.6883 49.2203 10.3063C48.8384 9.92444 48.6233 9.40681 48.6219 8.86671C48.617 8.60083 48.6677 8.3369 48.7708 8.09176C48.8739 7.84663 49.027 7.6257 49.2205 7.44321C49.4091 7.25448 49.6339 7.10565 49.8812 7.00556C50.1286 6.90546 50.3936 6.85619 50.6604 6.86063C51.1892 6.87072 51.6936 7.08533 52.0676 7.4594C52.4416 7.83347 52.6561 8.33785 52.666 8.86671H52.6656ZM52.3422 14.1403V29.0869H48.9453V14.1398L52.3422 14.1403Z" fill="black"></path><path d="M58.198 15.6929C59.1708 14.7206 60.41 14.0585 61.759 13.7903C63.108 13.5221 64.5062 13.6598 65.7769 14.1861C67.0476 14.7124 68.1338 15.6036 68.8982 16.747C69.6625 17.8905 70.0707 19.2349 70.0712 20.6103V29.0861H66.6743V20.6103C66.6743 19.6665 66.2994 18.7612 65.632 18.0938C64.9646 17.4264 64.0594 17.0515 63.1156 17.0515C62.1717 17.0515 61.2666 17.4264 60.5992 18.0938C59.9318 18.7612 59.5568 19.6665 59.5568 20.6103V29.0861H56.16V20.6103C56.1459 19.6949 56.3194 18.7863 56.6699 17.9406C57.0204 17.0949 57.5405 16.3299 58.198 15.6929Z" fill="black"></path><path d="M75.343 15.6929C76.3158 14.7206 77.555 14.0585 78.904 13.7903C80.253 13.5221 81.6512 13.6598 82.922 14.1861C84.1927 14.7124 85.2789 15.6036 86.0433 16.747C86.8076 17.8905 87.2158 19.2349 87.2163 20.6103V29.0861H83.8194V20.6103C83.8194 19.6665 83.4445 18.7614 82.7771 18.094C82.1098 17.4267 81.2046 17.0518 80.2608 17.0518C79.3171 17.0518 78.412 17.4267 77.7446 18.094C77.0773 18.7614 76.7024 19.6665 76.7024 20.6103V29.0861H73.3055V20.6103C73.2913 19.695 73.4648 18.7864 73.8152 17.9407C74.1657 17.095 74.6856 16.33 75.343 15.6929Z" fill="black"></path><path d="M103.329 15.9834C104.082 16.7129 104.676 17.5888 105.077 18.557C105.477 19.5251 105.675 20.5651 105.659 21.6127C105.667 22.6593 105.466 23.6968 105.066 24.6639C104.666 25.6309 104.075 26.5077 103.329 27.2421C102.6 27.9942 101.724 28.589 100.756 28.9896C99.7878 29.3901 98.7478 29.5881 97.7001 29.5712C96.6548 29.5719 95.6196 29.3666 94.6537 28.9669C93.6878 28.5672 92.8102 27.981 92.071 27.2419C91.3319 26.5027 90.7457 25.6251 90.346 24.6592C89.9463 23.6933 89.741 22.6581 89.7417 21.6127C89.7248 20.5651 89.9228 19.5251 90.3233 18.5569C90.7239 17.5887 91.3186 16.7129 92.0708 15.9834C92.8052 15.2378 93.682 14.6474 94.649 14.2473C95.616 13.8472 96.6536 13.6456 97.7001 13.6543C98.7478 13.6374 99.7878 13.8354 100.756 14.236C101.724 14.6366 102.6 15.2313 103.329 15.9834ZM94.4809 24.8478C95.2293 25.5943 96.2133 26.0583 97.2653 26.1607C98.3173 26.2632 99.3723 25.9977 100.251 25.4096C101.129 24.8215 101.776 23.9471 102.082 22.9354C102.388 21.9236 102.334 20.8371 101.929 19.8609C101.523 18.8846 100.792 18.0791 99.8597 17.5814C98.9273 17.0837 97.8511 16.9246 96.8145 17.1313C95.7779 17.338 94.845 17.8977 94.1748 18.715C93.5045 19.5323 93.1383 20.5567 93.1385 21.6137C93.1299 22.2159 93.2446 22.8135 93.4754 23.3698C93.7063 23.926 94.0485 24.4292 94.4809 24.8484V24.8478Z" fill="black"></path><path d="M118.468 14.1401H122.188L115.912 28.5364C115.792 28.8483 115.578 29.1152 115.3 29.3006C115.022 29.486 114.694 29.5808 114.359 29.5719C114.023 29.5926 113.689 29.5025 113.409 29.3156C113.128 29.1286 112.917 28.8549 112.807 28.5364L106.498 14.1401H110.218L114.359 23.6514L118.468 14.1401Z" fill="black"></path><path d="M136.619 15.9834C137.371 16.7128 137.966 17.5887 138.366 18.5569C138.767 19.5251 138.965 20.5651 138.948 21.6127V29.086H135.551V26.7893C134.967 27.6101 134.204 28.2867 133.319 28.7678C132.434 29.2488 131.451 29.5216 130.445 29.5653C129.439 29.6089 128.436 29.4224 127.513 29.0198C126.589 28.6172 125.77 28.0092 125.118 27.2421C123.73 25.7 122.984 23.6865 123.031 21.6127C123.014 20.5651 123.212 19.5251 123.613 18.5569C124.013 17.5887 124.608 16.7128 125.36 15.9834C126.095 15.2378 126.972 14.6474 127.939 14.2473C128.906 13.8472 129.943 13.6455 130.99 13.6543C132.037 13.6375 133.077 13.8355 134.045 14.2361C135.014 14.6367 135.889 15.2313 136.619 15.9834ZM127.771 24.8478C128.519 25.5941 129.503 26.0578 130.555 26.1601C131.607 26.2623 132.662 25.9967 133.54 25.4086C134.418 24.8204 135.065 23.946 135.371 22.9344C135.676 21.9227 135.622 20.8364 135.217 19.8603C134.811 18.8842 134.08 18.0788 133.148 17.5813C132.215 17.0837 131.139 16.9248 130.103 17.1316C129.066 17.3384 128.134 17.8981 127.464 18.7153C126.794 19.5326 126.427 20.5568 126.428 21.6137C126.419 22.216 126.534 22.8136 126.765 23.3699C126.996 23.9261 127.338 24.4293 127.771 24.8484V24.8478Z" fill="black"></path><path d="M147.294 22.7783C147.301 23.6769 147.661 24.5367 148.297 25.1722C148.932 25.8077 149.792 26.1679 150.691 26.1751V29.5719C149.799 29.5721 148.915 29.3964 148.091 29.055C147.266 28.7136 146.517 28.2132 145.886 27.5823C145.256 26.9514 144.755 26.2023 144.414 25.3779C144.072 24.5536 143.897 23.6701 143.897 22.7778V17.537H140.663V14.1402H143.897V10.7434L147.294 9.02881V14.1402H150.852V17.537H147.294L147.294 22.7783Z" fill="black"></path><path d="M157.906 8.86671C157.911 9.13341 157.861 9.39827 157.761 9.64555C157.661 9.89282 157.513 10.1175 157.324 10.3062C157.142 10.4995 156.921 10.6527 156.676 10.7557C156.43 10.8588 156.167 10.9095 155.901 10.9047C155.361 10.9032 154.843 10.6881 154.461 10.3062C154.079 9.92429 153.864 9.40676 153.863 8.86671C153.858 8.60083 153.908 8.3369 154.012 8.09176C154.115 7.84662 154.268 7.62569 154.461 7.44321C154.65 7.25451 154.874 7.1057 155.122 7.00561C155.369 6.90552 155.634 6.85623 155.901 6.86062C156.43 6.8706 156.934 7.08513 157.308 7.45923C157.682 7.83332 157.896 8.33781 157.906 8.86671ZM157.583 14.1403V29.0869H154.186V14.1398L157.583 14.1403Z" fill="black"></path><path d="M170.945 14.1401H174.666L168.39 28.5364C168.27 28.8483 168.056 29.1153 167.778 29.3008C167.5 29.4862 167.171 29.5809 166.837 29.5719C166.501 29.5926 166.167 29.5025 165.886 29.3156C165.606 29.1286 165.394 28.8549 165.284 28.5364L158.976 14.1401H162.696L166.837 23.6514L170.945 14.1401Z" fill="black"></path><path d="M184.209 26.1749C184.964 26.2062 185.718 26.0784 186.42 25.7997C187.123 25.5211 187.759 25.0977 188.287 24.5573L190.714 26.9516C189.038 28.5692 186.818 29.5024 184.49 29.5682C182.162 29.634 179.893 28.8277 178.129 27.3073C177.34 26.5934 176.692 25.7373 176.22 24.7837C175.742 23.7959 175.498 22.7108 175.508 21.6133C175.486 20.5811 175.669 19.5548 176.046 18.594C176.424 17.6331 176.989 16.7569 177.708 16.0163C178.397 15.2713 179.233 14.6768 180.162 14.2703C181.092 13.8637 182.096 13.6538 183.111 13.6538C184.125 13.6538 185.129 13.8637 186.059 14.2703C186.989 14.6768 187.824 15.2713 188.513 16.0163C189.233 16.757 189.797 17.6331 190.175 18.594C190.553 19.5548 190.736 20.5811 190.714 21.6133C190.718 22.1016 190.675 22.5893 190.584 23.0692H179.194C179.571 24.0103 180.248 24.801 181.119 25.319C182.047 25.8931 183.119 26.1901 184.209 26.1749ZM185.568 17.9254C184.873 17.3604 184.005 17.0519 183.109 17.0519C182.214 17.0519 181.346 17.3604 180.651 17.9254C179.926 18.4949 179.395 19.2745 179.13 20.1574H187.088C186.824 19.2745 186.293 18.4948 185.568 17.9249L185.568 17.9254Z" fill="black"></path><path d="M135.579 42.5609C136.105 43.0716 136.521 43.6847 136.802 44.3625C137.082 45.0402 137.221 45.7681 137.209 46.5015V51.1419C137.2 52.6166 136.61 54.0283 135.567 55.0711C134.525 56.1139 133.113 56.7039 131.638 56.7131V54.3353C132.058 54.3383 132.475 54.2577 132.864 54.0983C133.252 53.9389 133.605 53.7039 133.903 53.4068C134.2 53.1097 134.435 52.7564 134.594 52.3677C134.754 51.979 134.834 51.5625 134.831 51.1424V50.1233C134.422 50.6978 133.888 51.1714 133.269 51.5081C132.649 51.8448 131.961 52.0358 131.257 52.0664C130.553 52.097 129.851 51.9665 129.204 51.6848C128.558 51.403 127.985 50.9775 127.528 50.4406C126.557 49.3612 126.034 47.9517 126.067 46.5001C126.056 45.7667 126.194 45.0387 126.475 44.361C126.755 43.6833 127.172 43.0702 127.698 42.5596C128.212 42.0376 128.826 41.6243 129.503 41.3442C130.18 41.064 130.906 40.9228 131.639 40.9289C132.372 40.9173 133.1 41.0561 133.778 41.3368C134.455 41.6176 135.068 42.0342 135.579 42.5609ZM129.385 48.7659C129.909 49.2882 130.597 49.6128 131.334 49.6845C132.07 49.7561 132.808 49.5703 133.423 49.1588C134.037 48.7472 134.49 48.1354 134.704 47.4274C134.919 46.7194 134.881 45.959 134.597 45.2758C134.314 44.5926 133.802 44.0287 133.15 43.6803C132.497 43.3319 131.744 43.2205 131.019 43.365C130.293 43.5094 129.64 43.901 129.171 44.4728C128.702 45.0446 128.445 45.7613 128.445 46.501C128.439 46.9227 128.519 47.3412 128.681 47.7307C128.842 48.1202 129.082 48.4725 129.385 48.7659Z" fill="black"></path><path d="M142.101 34.5215V51.7325H139.724V34.5215H142.101Z" fill="black"></path><path d="M153.854 42.5611C154.381 43.0717 154.797 43.6848 155.077 44.3625C155.358 45.0402 155.497 45.7682 155.485 46.5016V51.7331H153.107V50.1248C152.698 50.6994 152.164 51.1731 151.545 51.5099C150.925 51.8467 150.237 52.0376 149.533 52.0682C148.828 52.0988 148.126 51.9683 147.48 51.6865C146.834 51.4047 146.26 50.9791 145.803 50.4421C144.832 49.3627 144.31 47.9532 144.343 46.5016C144.331 45.7683 144.47 45.0403 144.75 44.3626C145.03 43.6849 145.447 43.0717 145.973 42.5611C146.487 42.0391 147.101 41.6258 147.778 41.3457C148.455 41.0655 149.181 40.9243 149.914 40.9304C150.647 40.9186 151.375 41.0572 152.053 41.3377C152.73 41.6181 153.343 42.0345 153.854 42.5611ZM147.66 48.766C148.184 49.2883 148.873 49.6129 149.609 49.6846C150.345 49.7562 151.084 49.5704 151.698 49.1589C152.313 48.7473 152.766 48.1355 152.98 47.4275C153.194 46.7195 153.156 45.9591 152.873 45.2759C152.589 44.5927 152.078 44.0289 151.425 43.6805C150.773 43.3321 150.019 43.2206 149.294 43.3651C148.569 43.5096 147.916 43.9011 147.446 44.4729C146.977 45.0447 146.721 45.7615 146.721 46.5011C146.714 46.9228 146.795 47.3413 146.956 47.7309C147.118 48.1204 147.357 48.4726 147.66 48.766Z" fill="black"></path><path d="M159.268 42.3576C159.949 41.677 160.816 41.2137 161.76 41.026C162.705 40.8383 163.683 40.9349 164.573 41.3033C165.462 41.6717 166.222 42.2954 166.757 43.0958C167.293 43.8961 167.578 44.8371 167.579 45.7999V51.7335H165.201V45.7999C165.205 45.4699 165.144 45.1423 165.021 44.8361C164.898 44.5299 164.715 44.2512 164.483 44.0163C164.252 43.7813 163.976 43.5947 163.671 43.4673C163.367 43.34 163.04 43.2745 162.71 43.2745C162.38 43.2745 162.053 43.34 161.748 43.4673C161.444 43.5947 161.168 43.7813 160.936 44.0163C160.704 44.2512 160.522 44.5299 160.398 44.8361C160.275 45.1423 160.214 45.4699 160.219 45.7999V51.7335H157.841V45.7999C157.831 45.159 157.952 44.5231 158.198 43.931C158.443 43.339 158.807 42.8034 159.268 42.3576Z" fill="black"></path><path d="M172.651 48.766C173.255 49.3609 174.068 49.6944 174.916 49.6944C175.763 49.6944 176.577 49.3609 177.18 48.766L178.856 50.4416C177.81 51.4812 176.394 52.0636 174.919 52.0612C173.444 52.0588 172.03 51.4719 170.988 50.4289C169.945 49.386 169.358 47.9722 169.355 46.4973C169.353 45.0225 169.936 43.6068 170.975 42.5606C171.489 42.0386 172.103 41.6252 172.78 41.3451C173.457 41.0649 174.183 40.9238 174.916 40.9299C175.649 40.9181 176.377 41.0567 177.055 41.3372C177.733 41.6176 178.346 42.034 178.856 42.5606L177.181 44.2362C176.883 43.9396 176.53 43.7049 176.141 43.5455C175.753 43.3861 175.336 43.3053 174.916 43.3077C174.499 43.3012 174.085 43.3802 173.699 43.5399C173.314 43.6996 172.965 43.9365 172.674 44.2362C172.375 44.5318 172.137 44.8837 171.974 45.2715C171.81 45.6593 171.725 46.0754 171.723 46.4962C171.721 46.9169 171.802 47.334 171.961 47.7234C172.121 48.1128 172.355 48.467 172.652 48.7655L172.651 48.766Z" fill="black"></path><path d="M186.103 49.6947C186.631 49.7165 187.158 49.6269 187.65 49.4318C188.141 49.2367 188.586 48.9404 188.956 48.5622L190.655 50.238C189.482 51.3703 187.928 52.0235 186.298 52.0695C184.669 52.1156 183.081 51.5511 181.846 50.4868C181.294 49.9869 180.84 49.3877 180.51 48.7203C180.175 48.0288 180.004 47.2692 180.012 46.5008C179.996 45.7784 180.124 45.06 180.388 44.3875C180.653 43.7149 181.048 43.1017 181.551 42.5833C182.034 42.062 182.619 41.6459 183.27 41.3615C183.92 41.077 184.623 40.9302 185.333 40.9302C186.043 40.9302 186.746 41.077 187.397 41.3615C188.048 41.6459 188.633 42.062 189.115 42.5833C189.618 43.1017 190.014 43.715 190.278 44.3876C190.542 45.0601 190.67 45.7784 190.655 46.5008C190.658 46.8426 190.628 47.184 190.564 47.5199H182.593C182.857 48.1783 183.331 48.7315 183.941 49.0938C184.589 49.4962 185.339 49.7047 186.103 49.6947ZM187.054 43.9201C186.567 43.5245 185.959 43.3085 185.332 43.3085C184.706 43.3085 184.098 43.5245 183.611 43.9201C183.104 44.3186 182.732 44.8642 182.547 45.4822H188.118C187.932 44.8644 187.561 44.3189 187.054 43.9201Z" fill="black"></path></svg>